<svg width="20" height="21" viewBox="0 0 20 21" fill="none" xmlns="http://www.w3.org/2000/svg">
<path fill-rule="evenodd" clip-rule="evenodd" d="M9.16669 3.83341C5.94503 3.83341 3.33335 6.44509 3.33335 9.66675C3.33335 12.8884 5.94503 15.5001 9.16669 15.5001C12.3883 15.5001 15 12.8884 15 9.66675C15 6.44509 12.3883 3.83341 9.16669 3.83341ZM1.66669 9.66675C1.66669 5.52461 5.02455 2.16675 9.16669 2.16675C13.3088 2.16675 16.6667 5.52461 16.6667 9.66675C16.6667 13.8089 13.3088 17.1667 9.16669 17.1667C5.02455 17.1667 1.66669 13.8089 1.66669 9.66675Z" fill="black"/>
<path fill-rule="evenodd" clip-rule="evenodd" d="M13.2858 13.7858C13.6112 13.4604 14.1388 13.4604 14.4643 13.7858L18.0893 17.4108C18.4147 17.7363 18.4147 18.2639 18.0893 18.5893C17.7638 18.9148 17.2362 18.9148 16.9108 18.5893L13.2858 14.9643C12.9603 14.6389 12.9603 14.1113 13.2858 13.7858Z" fill="black"/>
</svg>
